<svg version="1.1" id="Layer_1" xmlns="http://www.w3.org/2000/svg" xmlns:xlink="http://www.w3.org/1999/xlink" x="0px" y="0px"
	 width="100%" viewBox="0 0 1024 1024" enable-background="new 0 0 1024 1024" xml:space="preserve">
<path fill="#000000" opacity="1.000000" stroke="none" 
	d="
M640.612183,276.432556 
	C643.646667,281.452118 646.527405,286.088501 651.419067,289.109375 
	C653.813599,290.588165 653.734863,293.272827 653.993530,295.809021 
	C655.251648,308.143921 659.730835,319.644196 663.428467,331.342896 
	C663.621704,331.954285 663.984741,332.769257 664.486694,332.987152 
	C671.727112,336.130280 670.619324,342.504333 669.498352,347.995728 
	C668.120056,354.747650 668.281860,361.167755 669.966614,367.715057 
	C670.718384,370.636810 670.750305,373.629150 670.582153,376.640289 
	C669.911255,388.655792 673.547791,399.985352 676.274048,411.447327 
	C677.408936,416.218811 680.275391,419.407013 685.409302,420.130493 
	C689.460693,420.701447 692.919556,422.865448 696.492126,424.600311 
	C709.757812,431.042084 724.488525,433.217957 737.958618,439.037903 
	C745.470337,442.283417 752.838562,445.772614 759.196838,451.038696 
	C771.668030,461.367676 772.550415,474.308228 761.510071,486.122437 
	C752.383301,495.888977 741.230530,502.769653 729.283813,508.526825 
	C721.121338,512.460388 721.036865,514.360962 728.657837,519.620667 
	C732.091125,521.990234 735.663086,524.150330 739.931335,524.743530 
	C742.657104,525.122437 744.941772,526.471008 747.097168,528.093445 
	C758.030640,536.323364 770.016296,542.806519 782.127747,549.062012 
	C786.651611,551.398499 790.480286,554.873840 791.600586,559.520386 
	C793.373352,566.873352 794.687927,574.373962 794.604919,582.134399 
	C794.359497,605.078674 791.392212,628.014526 793.362854,650.924866 
	C794.150208,660.078247 796.502258,669.195679 799.225952,678.177795 
	C801.832581,686.773987 805.612854,694.950867 808.104126,703.400513 
	C811.828125,716.030945 807.619202,724.204224 793.832642,730.200500 
	C785.619812,733.772583 776.785828,732.746643 768.224915,733.730408 
	C748.879028,735.953369 729.551636,738.720886 710.083496,739.221985 
	C697.207336,739.553345 684.297852,739.237366 671.629150,735.280640 
	C662.861877,732.542480 653.408325,733.829468 644.346375,734.582397 
	C630.207947,735.757080 616.152344,736.274963 601.957947,735.413147 
	C584.679993,734.364197 568.004456,730.897400 551.783447,725.091919 
	C539.930420,720.849792 528.952271,714.906799 519.348938,706.695496 
	C516.526245,704.282043 514.227478,704.282349 511.508667,706.575073 
	C489.827057,724.858459 464.032715,732.092957 436.428223,734.372192 
	C410.765778,736.491089 385.237366,736.477356 359.956573,730.411255 
	C351.520538,728.387024 343.231018,729.905212 336.302490,735.439819 
	C329.135956,741.164490 320.924988,741.186157 313.005341,739.261841 
	C301.159485,736.383484 289.119263,734.707947 277.241241,732.151001 
	C268.983398,730.373474 261.630920,726.414673 255.205536,720.929382 
	C249.438477,716.006104 247.820541,709.521057 249.435440,702.349182 
	C253.521317,684.203674 259.952820,666.958801 269.987030,651.193970 
	C271.046509,649.529419 272.389038,647.969727 273.864624,646.658997 
	C278.610443,642.443115 282.051239,637.548767 283.282562,631.166992 
	C283.899811,627.968079 285.766754,625.380981 288.551178,623.541626 
	C297.010132,617.953735 301.524719,609.446777 305.258850,600.480042 
	C307.496185,595.107422 309.188904,589.508728 311.151337,584.020569 
	C312.190979,581.113159 312.393951,578.085388 311.803345,575.138977 
	C310.366486,567.971191 308.989044,560.767029 307.025635,553.734436 
	C303.397217,540.738464 309.360382,532.711304 322.868744,532.943848 
	C323.701721,532.958130 324.533997,533.011902 325.366974,533.028503 
	C329.122620,533.102844 333.686859,533.187500 334.360901,528.770020 
	C335.002533,524.565186 331.438782,521.654175 327.616699,519.995056 
	C322.126556,517.611816 316.410614,515.720032 311.022583,513.135681 
	C296.439514,506.140900 281.901184,499.013458 270.446808,487.112335 
	C257.856506,474.030945 258.891724,460.156097 273.472626,449.270203 
	C284.617798,440.949371 297.713287,436.875549 310.764252,432.811737 
	C322.372589,429.197113 334.165833,426.216797 346.086761,423.889679 
	C351.541992,422.824707 353.800293,420.106415 354.797516,414.760986 
	C361.910187,376.634735 371.419189,339.098511 382.652588,301.970520 
	C390.248688,276.864319 406.878662,262.543945 432.463287,258.215851 
	C435.233307,257.747284 438.094421,257.679321 440.914185,257.669189 
	C448.889465,257.640472 456.662079,257.277557 464.560364,255.091232 
	C472.684235,252.842453 481.359528,252.600540 489.282318,257.297913 
	C491.269714,258.476257 493.696289,259.131470 496.038910,258.633270 
	C499.657379,257.863739 500.957794,259.634094 501.241821,262.799988 
	C501.567291,266.427582 503.363861,268.881866 506.614319,270.612732 
	C508.639038,271.690918 510.630371,273.172424 512.076782,274.932892 
	C516.580994,280.414917 521.903503,279.564026 527.449707,277.311371 
	C541.949280,271.422150 556.008667,264.414093 571.098022,260.029938 
	C576.371338,258.497772 581.729004,257.107880 587.249329,257.006897 
	C593.058167,256.900665 598.307068,254.586517 603.712402,253.061172 
	C612.766052,250.506287 619.395020,255.091858 625.242310,260.354706 
	C630.623718,265.198303 635.064026,271.140686 640.612183,276.432556 
M475.745148,565.205566 
	C485.239319,547.653931 487.683899,528.728271 486.611786,509.135071 
	C486.483643,506.793732 486.127228,504.063019 484.074188,502.873169 
	C481.717712,501.507507 481.200348,499.625122 480.485931,497.355621 
	C478.736877,491.799622 472.640076,489.065887 466.773193,491.048920 
	C467.823029,493.646576 467.410034,496.371033 464.917419,497.471954 
	C456.645721,501.125275 450.651428,507.757904 443.791931,513.200806 
	C433.753265,521.166443 424.125031,529.649658 413.529236,536.904480 
	C412.516815,537.597656 411.622559,538.943787 410.080933,537.861206 
	C409.669617,535.860107 411.241638,534.817383 412.164337,533.524475 
	C419.975250,522.579590 429.901154,513.684570 440.003387,504.969696 
	C442.545227,502.776947 445.000580,500.698944 445.146362,496.860687 
	C445.271423,493.568634 447.347443,492.453400 450.636688,492.738708 
	C454.066498,493.036255 457.456238,492.519257 460.539612,490.284454 
	C459.417328,487.450745 457.362976,487.454193 455.125122,487.713318 
	C449.292877,488.388702 443.524200,488.448456 437.828705,486.550018 
	C427.750793,483.190826 422.987183,491.003296 424.750580,500.177368 
	C415.840454,498.519043 410.931854,505.165009 404.868011,509.531982 
	C400.951691,512.352356 397.062622,515.213440 393.079346,517.936279 
	C391.903290,518.740173 390.336212,519.871704 389.003510,518.526123 
	C387.433716,516.941162 388.780457,515.335693 389.820709,514.130554 
	C391.882172,511.742218 394.057251,509.429504 396.372192,507.287445 
	C400.234406,503.713684 404.030304,500.587097 402.879456,494.118591 
	C402.081696,489.634735 401.050446,487.404846 396.429535,487.139709 
	C389.696289,486.753448 383.804230,489.667938 377.732544,491.856201 
	C375.532074,492.649292 375.050293,494.575409 374.870270,496.691895 
	C374.712158,498.550812 374.350067,500.619049 372.142090,500.969727 
	C368.219940,501.592682 367.947937,504.507385 367.278381,507.515228 
	C366.178711,512.455017 366.445526,517.446594 366.215027,522.423950 
	C365.596344,535.784973 366.395020,548.950500 370.849396,561.735779 
	C375.761322,575.834229 385.872559,583.786499 400.156403,586.666809 
	C412.476562,589.151184 424.884979,588.899231 437.400757,587.810425 
	C453.666168,586.395447 467.062744,580.678162 475.745148,565.205566 
M581.668030,490.472443 
	C580.917236,487.186096 578.433533,486.459167 575.589600,486.593109 
	C573.104187,486.710175 570.526550,486.790436 568.176575,487.503113 
	C561.114197,489.645020 552.490784,489.419464 549.855469,498.820343 
	C549.695557,499.390747 549.104919,500.019867 548.554443,500.273010 
	C543.954285,502.388092 543.612732,506.618652 543.377625,510.790894 
	C542.531006,525.812805 545.305237,540.273743 550.570312,554.277893 
	C556.670044,570.502014 566.903625,582.642090 584.644531,586.300964 
	C599.410645,589.346191 614.321106,589.430359 629.291077,587.143555 
	C648.029541,584.280945 658.457214,573.283081 662.059326,555.073669 
	C664.331299,543.588318 664.407654,531.994202 664.750488,520.342346 
	C665.048035,510.229858 659.044678,502.834686 655.908508,494.215302 
	C655.600037,493.367493 654.639099,492.659668 653.830627,492.106476 
	C646.361267,486.995270 637.754028,485.878357 629.077759,485.776764 
	C624.932800,485.728210 623.914307,488.752838 625.934937,492.579468 
	C627.614075,495.759338 626.139221,498.738708 623.255310,499.205261 
	C619.081665,499.880402 616.328430,502.364044 613.420227,504.700226 
	C601.224670,514.497192 589.184448,524.490234 576.523987,533.691772 
	C574.786255,534.954773 573.214111,536.848145 570.645935,536.754517 
	C570.166931,534.039673 571.905640,532.696350 573.053345,531.180481 
	C580.330383,521.568909 589.235657,513.544250 598.533325,506.007629 
	C602.877869,502.486023 601.765625,499.269196 599.816650,495.546143 
	C597.299500,495.510315 596.866516,498.681152 595.141235,498.472931 
	C589.124207,497.746826 586.441223,502.674194 582.562195,505.469482 
	C577.565369,509.070251 572.941345,513.194092 567.895081,516.718018 
	C565.529419,518.370056 562.294495,522.011047 559.796021,518.969788 
	C557.674133,516.386902 561.534424,513.709717 563.543396,511.732269 
	C570.065735,505.312225 576.680725,499.003998 581.668030,490.472443 
M538.997742,364.648468 
	C535.988708,365.862366 532.355957,364.692108 528.389893,367.928436 
	C569.740417,370.165771 609.376892,375.766846 647.262634,388.549622 
	C648.828979,387.045135 648.734863,385.823273 648.489685,384.712616 
	C642.218628,356.300018 635.925476,327.881470 626.406677,300.331665 
	C623.008545,290.496460 615.822449,284.484100 605.591553,282.042450 
	C599.851807,280.672638 594.141479,281.610413 587.659668,281.989014 
	C590.749756,278.360413 594.962769,277.483368 598.234436,274.077576 
	C591.033875,272.234894 585.264648,274.422791 579.630432,277.222748 
	C569.306213,282.353424 559.982056,289.103699 550.420654,295.460480 
	C540.051758,302.354187 528.847656,306.309784 516.248901,306.464630 
	C502.977692,306.627777 491.654816,301.349609 480.742157,294.691956 
	C471.789032,289.229797 463.491699,282.699158 454.118317,277.935791 
	C447.945740,274.799072 441.468170,272.475861 433.289459,273.740845 
	C439.878052,278.447632 447.621246,279.473419 453.362427,286.192627 
	C446.365723,284.627075 440.630768,283.380310 434.487274,284.341827 
	C435.375763,286.496643 437.138000,286.807495 438.587708,287.432678 
	C446.395081,290.799469 453.972137,294.612152 461.408295,298.735443 
	C483.326202,310.888611 506.355194,317.902344 531.789185,313.872955 
	C533.858398,313.545105 536.201965,313.013977 538.533203,314.129730 
	C535.097168,317.878906 530.020142,317.566681 525.729614,320.783508 
	C539.438843,320.783508 552.262756,320.783508 565.086609,320.783508 
	C551.796387,327.560699 537.438904,330.836395 522.428101,336.310272 
	C539.601196,337.468903 555.513916,335.335205 571.274109,338.400543 
	C556.889832,343.203888 541.965149,345.753937 527.842468,351.022614 
	C546.007996,352.369354 563.940247,354.646667 581.924866,356.461304 
	C581.933411,357.049042 581.941956,357.636749 581.950439,358.224487 
	C567.916016,360.316528 553.881531,362.408569 538.997742,364.648468 
M492.624451,412.650574 
	C502.917999,413.212708 513.211548,413.774841 523.505066,414.337006 
	C523.480408,414.831451 523.455688,415.325897 523.430969,415.820343 
	C496.919952,418.451447 470.498962,421.743195 444.143433,426.116241 
	C467.942963,429.171783 491.926392,428.641357 515.592163,432.334381 
	C476.628967,434.996857 437.754974,437.549011 399.010895,442.388641 
	C504.399139,445.316925 609.897888,443.659790 715.176880,451.164276 
	C676.746216,439.188934 637.313599,432.660278 597.157410,429.962250 
	C597.181519,429.471802 597.205627,428.981384 597.229736,428.490936 
	C610.703735,426.499786 624.177795,424.508636 638.609131,422.376007 
	C623.838318,411.631012 480.700409,402.404053 465.094635,410.911102 
	C474.441223,411.521698 483.053741,412.084351 492.624451,412.650574 
M506.261261,646.270447 
	C502.555847,641.594055 497.937317,638.203369 492.346405,636.052551 
	C480.114166,631.346802 468.200562,633.128235 456.349548,637.535522 
	C446.407410,641.232910 437.814453,647.228088 429.194641,653.203979 
	C415.808167,662.484680 403.444550,673.222412 389.100677,681.143433 
	C375.871643,688.448853 361.865692,691.799438 346.840759,689.273926 
	C340.235107,688.163574 335.150116,684.478760 332.861633,677.841492 
	C330.509308,671.019226 332.302643,664.998474 337.072601,659.874756 
	C341.498901,655.120239 347.243805,653.150085 353.633514,652.754639 
	C354.980438,652.671265 356.626190,653.589172 357.660461,651.945251 
	C357.327545,650.772156 356.367859,650.362488 355.510193,649.882996 
	C347.033722,645.143372 336.287933,647.208618 327.561432,655.237732 
	C320.248749,661.965942 317.876312,673.266357 322.057281,682.279663 
	C328.670532,696.536438 343.600708,702.779846 359.408661,702.455505 
	C380.100220,702.031128 399.177216,695.181946 417.482422,685.862305 
	C432.617157,678.156860 446.734955,668.491516 462.439240,661.946838 
	C478.346832,655.317383 494.437653,652.443298 509.983948,663.346497 
	C510.887329,663.980042 511.941864,664.713867 513.685730,663.701538 
	C513.791565,657.215576 510.081818,652.090271 506.261261,646.270447 
M688.835022,687.722900 
	C673.280823,692.615173 658.550232,689.708069 644.417358,682.663147 
	C627.625610,674.292969 613.367249,662.063354 597.957703,651.587524 
	C586.782410,643.990295 575.655457,636.471619 561.973877,633.861877 
	C541.210266,629.901245 524.017578,640.417969 518.573181,660.760315 
	C518.469543,661.147522 518.826843,661.658020 519.049194,662.366089 
	C519.916992,662.098022 520.756287,661.997986 521.426758,661.607849 
	C533.168030,654.775391 545.479126,655.165894 558.137207,658.396240 
	C569.284058,661.241028 578.929321,667.251282 588.906982,672.548157 
	C613.579224,685.646240 637.553589,700.504700 666.603760,702.095215 
	C678.318909,702.736572 689.615906,701.528381 699.278625,694.129333 
	C707.664795,687.707703 712.214111,679.236450 710.314026,668.478027 
	C708.298401,657.065796 700.809265,650.525208 689.848389,647.751648 
	C682.942444,646.004150 674.014648,648.820435 670.216675,653.728394 
	C686.739929,652.963135 694.860291,656.727966 697.941956,666.582642 
	C700.637268,675.201477 698.024597,681.657410 688.835022,687.722900 
M349.135284,494.299377 
	C345.538300,494.333862 340.853973,493.664764 340.664337,498.642761 
	C340.463593,503.913116 345.545563,503.142700 348.891296,503.244873 
	C351.488922,503.324249 355.181885,503.249634 355.450317,499.551666 
	C355.686523,496.297638 353.034363,494.782501 349.135284,494.299377 
M680.700928,494.358673 
	C677.682983,494.247803 675.223267,495.137604 675.259460,498.615753 
	C675.296204,502.149902 678.140808,502.673096 680.892517,502.926971 
	C682.206116,503.048187 683.545044,502.960541 684.868652,502.891998 
	C687.285583,502.766876 689.161621,501.769745 689.309021,499.135071 
	C689.451599,496.585846 687.752625,495.182770 685.478210,494.615753 
	C684.213928,494.300568 682.841492,494.419312 680.700928,494.358673 
z"/>
<path fill="#000000" opacity="1.000000" stroke="none" 
	d="
M361.993835,787.979248 
	C354.142090,787.980774 346.789185,787.980774 339.257111,787.980774 
	C339.688019,785.857666 340.657501,785.944153 341.403503,785.896362 
	C419.669098,780.882629 497.964233,776.237915 576.434937,779.228333 
	C613.369995,780.635864 650.256531,783.315552 687.144897,786.615540 
	C659.430603,786.685669 631.822876,788.109741 604.206543,789.272949 
	C627.523071,792.272034 651.093689,792.068359 674.398254,795.529907 
	C569.174316,800.136719 463.988861,800.029602 358.761047,795.636230 
	C382.006439,792.373901 405.514496,792.478210 428.779602,789.235046 
	C406.706238,787.937805 384.609924,787.544189 361.993835,787.979248 
z"/>
</svg>